<svg xmlns="http://www.w3.org/2000/svg" xmlns:xlink="http://www.w3.org/1999/xlink" width="680" zoomAndPan="magnify" viewBox="0 0 510 425.249996" height="566" preserveAspectRatio="xMidYMid meet" version="1.0"><defs><g/></defs><g fill="#b17d28" fill-opacity="1"><g transform="translate(14.958634, 202.793165)"><g><path d="M 2.140625 0.1875 C 1.828125 0.1875 1.570312 0.15625 1.375 0.09375 C 1.1875 0.03125 1.09375 -0.0703125 1.09375 -0.21875 C 1.09375 -0.507812 1.488281 -0.726562 2.28125 -0.875 C 3.207031 -1.039062 3.84375 -1.316406 4.1875 -1.703125 C 4.539062 -2.085938 4.71875 -2.726562 4.71875 -3.625 L 4.71875 -18.9375 C 4.71875 -20.03125 4.578125 -20.863281 4.296875 -21.4375 C 4.015625 -22.019531 3.414062 -22.394531 2.5 -22.5625 C 2.09375 -22.632812 1.789062 -22.726562 1.59375 -22.84375 C 1.40625 -22.96875 1.3125 -23.117188 1.3125 -23.296875 C 1.3125 -23.441406 1.40625 -23.539062 1.59375 -23.59375 C 1.789062 -23.65625 2.046875 -23.6875 2.359375 -23.6875 C 3.253906 -23.6875 4.007812 -23.675781 4.625 -23.65625 C 5.238281 -23.632812 5.847656 -23.613281 6.453125 -23.59375 C 7.054688 -23.582031 7.769531 -23.578125 8.59375 -23.578125 C 9.300781 -23.578125 10.050781 -23.578125 10.84375 -23.578125 C 11.644531 -23.578125 12.421875 -23.578125 13.171875 -23.578125 C 13.941406 -23.578125 14.625 -23.640625 15.21875 -23.765625 C 15.8125 -23.890625 16.328125 -23.953125 16.765625 -23.953125 C 16.878906 -23.953125 17.007812 -23.925781 17.15625 -23.875 C 17.300781 -23.820312 17.390625 -23.738281 17.421875 -23.625 C 17.460938 -23.351562 17.492188 -22.957031 17.515625 -22.4375 C 17.546875 -21.914062 17.566406 -21.410156 17.578125 -20.921875 C 17.585938 -20.441406 17.59375 -20.117188 17.59375 -19.953125 C 17.59375 -19.441406 17.484375 -19.1875 17.265625 -19.1875 C 17.148438 -19.1875 17.039062 -19.226562 16.9375 -19.3125 C 16.84375 -19.40625 16.769531 -19.507812 16.71875 -19.625 C 16.625 -20.039062 16.503906 -20.398438 16.359375 -20.703125 C 16.210938 -21.003906 16.054688 -21.238281 15.890625 -21.40625 C 15.554688 -21.789062 15.179688 -22.050781 14.765625 -22.1875 C 14.359375 -22.320312 13.921875 -22.390625 13.453125 -22.390625 L 8.859375 -22.390625 C 8.296875 -22.390625 7.953125 -22.207031 7.828125 -21.84375 C 7.710938 -21.476562 7.644531 -21.054688 7.625 -20.578125 C 7.59375 -20.109375 7.578125 -19.539062 7.578125 -18.875 C 7.578125 -18.21875 7.578125 -17.570312 7.578125 -16.9375 C 7.578125 -16.332031 7.578125 -15.71875 7.578125 -15.09375 C 7.578125 -14.46875 7.59375 -13.9375 7.625 -13.5 C 7.625 -13.300781 7.640625 -13.117188 7.671875 -12.953125 C 7.710938 -12.785156 7.816406 -12.703125 7.984375 -12.703125 C 8.753906 -12.703125 9.535156 -12.71875 10.328125 -12.75 C 11.128906 -12.789062 11.75 -12.8125 12.1875 -12.8125 C 12.71875 -12.8125 13.175781 -12.953125 13.5625 -13.234375 C 13.957031 -13.523438 14.238281 -13.878906 14.40625 -14.296875 C 14.445312 -14.390625 14.539062 -14.515625 14.6875 -14.671875 C 14.832031 -14.828125 14.957031 -14.90625 15.0625 -14.90625 C 15.15625 -14.90625 15.257812 -14.847656 15.375 -14.734375 C 15.5 -14.628906 15.550781 -14.492188 15.53125 -14.328125 C 15.5 -13.921875 15.472656 -13.554688 15.453125 -13.234375 C 15.429688 -12.921875 15.421875 -12.617188 15.421875 -12.328125 C 15.421875 -11.972656 15.429688 -11.609375 15.453125 -11.234375 C 15.472656 -10.859375 15.5 -10.40625 15.53125 -9.875 C 15.53125 -9.695312 15.507812 -9.546875 15.46875 -9.421875 C 15.4375 -9.304688 15.347656 -9.25 15.203125 -9.25 C 14.960938 -9.25 14.773438 -9.359375 14.640625 -9.578125 C 14.503906 -9.796875 14.414062 -9.96875 14.375 -10.09375 C 14.195312 -10.644531 13.9375 -11.019531 13.59375 -11.21875 C 13.257812 -11.425781 12.945312 -11.53125 12.65625 -11.53125 C 12.34375 -11.53125 12.035156 -11.535156 11.734375 -11.546875 C 11.429688 -11.566406 11.132812 -11.578125 10.84375 -11.578125 C 10.4375 -11.578125 10.039062 -11.578125 9.65625 -11.578125 C 9.269531 -11.578125 8.878906 -11.550781 8.484375 -11.5 C 8.242188 -11.476562 8.039062 -11.398438 7.875 -11.265625 C 7.707031 -11.128906 7.625 -10.90625 7.625 -10.59375 C 7.625 -9.476562 7.628906 -8.347656 7.640625 -7.203125 C 7.648438 -6.054688 7.679688 -4.878906 7.734375 -3.671875 C 7.773438 -2.890625 7.957031 -2.269531 8.28125 -1.8125 C 8.613281 -1.351562 9.226562 -1.039062 10.125 -0.875 C 10.53125 -0.800781 10.828125 -0.710938 11.015625 -0.609375 C 11.210938 -0.515625 11.3125 -0.382812 11.3125 -0.21875 C 11.3125 -0.0703125 11.210938 0.03125 11.015625 0.09375 C 10.828125 0.15625 10.578125 0.1875 10.265625 0.1875 C 9.609375 0.1875 9.101562 0.160156 8.75 0.109375 C 8.40625 0.0546875 8.09375 0.015625 7.8125 -0.015625 C 7.539062 -0.0546875 7.175781 -0.078125 6.71875 -0.078125 C 6.132812 -0.078125 5.617188 -0.0546875 5.171875 -0.015625 C 4.722656 0.015625 4.269531 0.0546875 3.8125 0.109375 C 3.351562 0.160156 2.796875 0.1875 2.140625 0.1875 Z M 2.140625 0.1875 "/></g></g></g><g fill="#b17d28" fill-opacity="1"><g transform="translate(37.778682, 202.793165)"><g><path d="M 2.390625 0.1875 C 2.078125 0.1875 1.820312 0.15625 1.625 0.09375 C 1.4375 0.03125 1.34375 -0.0703125 1.34375 -0.21875 C 1.34375 -0.507812 1.742188 -0.726562 2.546875 -0.875 C 3.460938 -1.039062 4.132812 -1.316406 4.5625 -1.703125 C 5 -2.085938 5.21875 -2.71875 5.21875 -3.59375 L 5.21875 -19.921875 C 5.21875 -20.785156 5.039062 -21.398438 4.6875 -21.765625 C 4.34375 -22.128906 3.710938 -22.394531 2.796875 -22.5625 C 2.378906 -22.632812 2.070312 -22.726562 1.875 -22.84375 C 1.6875 -22.96875 1.59375 -23.117188 1.59375 -23.296875 C 1.59375 -23.441406 1.6875 -23.539062 1.875 -23.59375 C 2.070312 -23.65625 2.332031 -23.6875 2.65625 -23.6875 C 3.570312 -23.6875 4.347656 -23.675781 4.984375 -23.65625 C 5.628906 -23.632812 6.257812 -23.613281 6.875 -23.59375 C 7.488281 -23.582031 8.222656 -23.578125 9.078125 -23.578125 C 9.867188 -23.578125 10.707031 -23.582031 11.59375 -23.59375 C 12.476562 -23.613281 13.296875 -23.625 14.046875 -23.625 C 14.867188 -23.644531 15.5625 -23.660156 16.125 -23.671875 C 16.695312 -23.679688 17.03125 -23.6875 17.125 -23.6875 C 17.25 -23.6875 17.378906 -23.660156 17.515625 -23.609375 C 17.660156 -23.566406 17.75 -23.484375 17.78125 -23.359375 C 17.894531 -22.679688 18.015625 -22.007812 18.140625 -21.34375 C 18.265625 -20.6875 18.328125 -20.113281 18.328125 -19.625 C 18.328125 -19.40625 18.269531 -19.257812 18.15625 -19.1875 C 18.050781 -19.113281 17.9375 -19.078125 17.8125 -19.078125 C 17.6875 -19.078125 17.597656 -19.109375 17.546875 -19.171875 C 17.503906 -19.234375 17.460938 -19.328125 17.421875 -19.453125 C 17.296875 -19.859375 17.171875 -20.25 17.046875 -20.625 C 16.929688 -21 16.785156 -21.269531 16.609375 -21.4375 C 16.273438 -21.820312 15.898438 -22.082031 15.484375 -22.21875 C 15.078125 -22.351562 14.644531 -22.421875 14.1875 -22.421875 L 9.4375 -22.421875 C 9.238281 -22.421875 8.96875 -22.3125 8.625 -22.09375 C 8.289062 -21.875 8.125 -21.597656 8.125 -21.265625 L 8.125 -13.5625 C 8.125 -13.351562 8.191406 -13.164062 8.328125 -13 C 8.460938 -12.84375 8.613281 -12.765625 8.78125 -12.765625 L 12.375 -12.765625 C 13.070312 -12.765625 13.550781 -12.890625 13.8125 -13.140625 C 14.082031 -13.398438 14.300781 -13.867188 14.46875 -14.546875 C 14.613281 -15.078125 14.832031 -15.34375 15.125 -15.34375 C 15.226562 -15.34375 15.332031 -15.296875 15.4375 -15.203125 C 15.539062 -15.109375 15.59375 -14.960938 15.59375 -14.765625 C 15.59375 -14.671875 15.585938 -14.453125 15.578125 -14.109375 C 15.566406 -13.773438 15.546875 -13.425781 15.515625 -13.0625 C 15.492188 -12.695312 15.484375 -12.421875 15.484375 -12.234375 C 15.484375 -11.984375 15.488281 -11.660156 15.5 -11.265625 C 15.519531 -10.867188 15.535156 -10.488281 15.546875 -10.125 C 15.554688 -9.757812 15.5625 -9.53125 15.5625 -9.4375 C 15.5625 -9.257812 15.539062 -9.109375 15.5 -8.984375 C 15.46875 -8.867188 15.378906 -8.8125 15.234375 -8.8125 C 14.867188 -8.8125 14.59375 -9.203125 14.40625 -9.984375 C 14.257812 -10.535156 14.0625 -10.941406 13.8125 -11.203125 C 13.570312 -11.472656 13.210938 -11.609375 12.734375 -11.609375 L 9.359375 -11.609375 C 8.953125 -11.609375 8.644531 -11.550781 8.4375 -11.4375 C 8.226562 -11.332031 8.125 -11.078125 8.125 -10.671875 L 8.125 -3.703125 C 8.125 -2.785156 8.316406 -2.148438 8.703125 -1.796875 C 9.085938 -1.441406 9.691406 -1.265625 10.515625 -1.265625 L 13.203125 -1.265625 C 13.984375 -1.265625 14.628906 -1.304688 15.140625 -1.390625 C 15.660156 -1.484375 16.117188 -1.648438 16.515625 -1.890625 C 16.898438 -2.148438 17.242188 -2.5 17.546875 -2.9375 C 17.847656 -3.375 18.191406 -3.957031 18.578125 -4.6875 C 18.648438 -4.820312 18.734375 -4.9375 18.828125 -5.03125 C 18.921875 -5.132812 19.03125 -5.175781 19.15625 -5.15625 C 19.28125 -5.125 19.378906 -5.066406 19.453125 -4.984375 C 19.523438 -4.898438 19.5625 -4.785156 19.5625 -4.640625 C 19.5625 -4.421875 19.5 -4.039062 19.375 -3.5 C 19.25 -2.957031 19.097656 -2.394531 18.921875 -1.8125 C 18.742188 -1.226562 18.582031 -0.769531 18.4375 -0.4375 C 18.363281 -0.269531 18.296875 -0.125 18.234375 0 C 18.171875 0.125 18.066406 0.1875 17.921875 0.1875 C 16.765625 0.1875 15.6875 0.171875 14.6875 0.140625 C 13.695312 0.117188 12.753906 0.09375 11.859375 0.0625 C 10.960938 0.0390625 10.085938 0.0195312 9.234375 0 C 8.378906 -0.0195312 7.488281 -0.03125 6.5625 -0.03125 C 6.03125 -0.03125 5.570312 -0.015625 5.1875 0.015625 C 4.800781 0.0546875 4.398438 0.09375 3.984375 0.125 C 3.578125 0.164062 3.046875 0.1875 2.390625 0.1875 Z M 2.390625 0.1875 "/></g></g></g><g fill="#b17d28" fill-opacity="1"><g transform="translate(62.485197, 202.793165)"><g><path d="M 23.109375 0.765625 C 22.429688 0.765625 21.789062 0.707031 21.1875 0.59375 C 20.582031 0.488281 20.023438 0.289062 19.515625 0 C 19.003906 -0.289062 18.535156 -0.691406 18.109375 -1.203125 C 17.523438 -1.921875 16.96875 -2.613281 16.4375 -3.28125 C 15.90625 -3.945312 15.34375 -4.710938 14.75 -5.578125 C 14.15625 -6.453125 13.4375 -7.566406 12.59375 -8.921875 C 12.226562 -9.523438 11.707031 -10 11.03125 -10.34375 C 10.5 -10.601562 9.972656 -10.785156 9.453125 -10.890625 C 8.929688 -11.003906 8.5 -11.078125 8.15625 -11.109375 C 7.96875 -11.128906 7.832031 -11.066406 7.75 -10.921875 C 7.664062 -10.773438 7.625 -10.59375 7.625 -10.375 L 7.625 -3.984375 C 7.625 -3.210938 7.800781 -2.539062 8.15625 -1.96875 C 8.519531 -1.40625 9.148438 -1.039062 10.046875 -0.875 C 10.460938 -0.800781 10.765625 -0.710938 10.953125 -0.609375 C 11.148438 -0.515625 11.25 -0.382812 11.25 -0.21875 C 11.25 -0.0703125 11.148438 0.03125 10.953125 0.09375 C 10.765625 0.15625 10.507812 0.1875 10.1875 0.1875 C 9.539062 0.1875 9.039062 0.160156 8.6875 0.109375 C 8.332031 0.0546875 8.015625 0.015625 7.734375 -0.015625 C 7.460938 -0.0546875 7.097656 -0.078125 6.640625 -0.078125 C 6.035156 -0.078125 5.492188 -0.0546875 5.015625 -0.015625 C 4.546875 0.015625 4.078125 0.0546875 3.609375 0.109375 C 3.140625 0.160156 2.578125 0.1875 1.921875 0.1875 C 1.609375 0.1875 1.351562 0.15625 1.15625 0.09375 C 0.96875 0.03125 0.875 -0.0703125 0.875 -0.21875 C 0.875 -0.507812 1.269531 -0.726562 2.0625 -0.875 C 2.988281 -1.039062 3.660156 -1.316406 4.078125 -1.703125 C 4.503906 -2.085938 4.71875 -2.726562 4.71875 -3.625 L 4.71875 -19.078125 C 4.71875 -20.003906 4.675781 -20.703125 4.59375 -21.171875 C 4.507812 -21.640625 4.316406 -21.96875 4.015625 -22.15625 C 3.710938 -22.351562 3.207031 -22.488281 2.5 -22.5625 C 2.09375 -22.613281 1.789062 -22.703125 1.59375 -22.828125 C 1.40625 -22.960938 1.3125 -23.117188 1.3125 -23.296875 C 1.3125 -23.441406 1.40625 -23.539062 1.59375 -23.59375 C 1.789062 -23.65625 2.046875 -23.6875 2.359375 -23.6875 C 3.015625 -23.6875 3.503906 -23.6875 3.828125 -23.6875 C 4.148438 -23.6875 4.457031 -23.679688 4.75 -23.671875 C 5.039062 -23.660156 5.425781 -23.65625 5.90625 -23.65625 C 6.375 -23.65625 6.785156 -23.671875 7.140625 -23.703125 C 7.503906 -23.742188 7.910156 -23.773438 8.359375 -23.796875 C 8.804688 -23.828125 9.382812 -23.84375 10.09375 -23.84375 C 12.75 -23.84375 14.769531 -23.34375 16.15625 -22.34375 C 17.550781 -21.351562 18.25 -19.867188 18.25 -17.890625 C 18.25 -16.796875 18.03125 -15.851562 17.59375 -15.0625 C 17.15625 -14.28125 16.609375 -13.625 15.953125 -13.09375 C 15.304688 -12.5625 14.644531 -12.128906 13.96875 -11.796875 C 13.875 -11.765625 13.832031 -11.707031 13.84375 -11.625 C 13.851562 -11.539062 13.894531 -11.4375 13.96875 -11.3125 C 14.71875 -10.175781 15.4375 -9.097656 16.125 -8.078125 C 16.8125 -7.066406 17.566406 -6.078125 18.390625 -5.109375 C 19.210938 -4.148438 20.191406 -3.148438 21.328125 -2.109375 C 21.960938 -1.546875 22.601562 -1.203125 23.25 -1.078125 C 23.90625 -0.960938 24.65625 -0.90625 25.5 -0.90625 C 25.863281 -0.90625 26.046875 -0.773438 26.046875 -0.515625 C 26.046875 -0.148438 25.863281 0.117188 25.5 0.296875 C 25.144531 0.484375 24.734375 0.609375 24.265625 0.671875 C 23.804688 0.734375 23.421875 0.765625 23.109375 0.765625 Z M 9.546875 -11.9375 C 10.648438 -11.9375 11.609375 -12.1875 12.421875 -12.6875 C 13.234375 -13.195312 13.863281 -13.863281 14.3125 -14.6875 C 14.757812 -15.507812 14.984375 -16.382812 14.984375 -17.3125 C 14.984375 -18.300781 14.851562 -19.207031 14.59375 -20.03125 C 14.34375 -20.851562 13.835938 -21.507812 13.078125 -22 C 12.316406 -22.5 11.175781 -22.75 9.65625 -22.75 C 8.875 -22.75 8.363281 -22.5 8.125 -22 C 7.882812 -21.507812 7.738281 -20.632812 7.6875 -19.375 C 7.664062 -18.769531 7.648438 -17.953125 7.640625 -16.921875 C 7.628906 -15.898438 7.625 -14.660156 7.625 -13.203125 C 7.625 -12.597656 7.789062 -12.234375 8.125 -12.109375 C 8.46875 -11.992188 8.941406 -11.9375 9.546875 -11.9375 Z M 9.546875 -11.9375 "/></g></g></g><g fill="#b17d28" fill-opacity="1"><g transform="translate(92.597156, 202.793165)"><g><path d="M 24.234375 0.609375 C 24.015625 0.609375 23.582031 0.425781 22.9375 0.0625 C 22.300781 -0.289062 21.691406 -0.867188 21.109375 -1.671875 C 21.015625 -1.785156 20.71875 -2.144531 20.21875 -2.75 C 19.726562 -3.363281 19.101562 -4.125 18.34375 -5.03125 C 17.582031 -5.9375 16.753906 -6.921875 15.859375 -7.984375 C 14.960938 -9.046875 14.066406 -10.109375 13.171875 -11.171875 C 12.273438 -12.234375 11.4375 -13.21875 10.65625 -14.125 C 9.882812 -15.03125 9.238281 -15.789062 8.71875 -16.40625 C 8.207031 -17.03125 7.890625 -17.414062 7.765625 -17.5625 C 7.597656 -17.78125 7.453125 -17.929688 7.328125 -18.015625 C 7.203125 -18.097656 7.09375 -18.140625 7 -18.140625 C 6.882812 -18.140625 6.800781 -18.046875 6.75 -17.859375 C 6.695312 -17.679688 6.671875 -17.519531 6.671875 -17.375 C 6.648438 -16.1875 6.625 -14.816406 6.59375 -13.265625 C 6.570312 -11.722656 6.550781 -10.128906 6.53125 -8.484375 C 6.507812 -6.835938 6.5 -5.265625 6.5 -3.765625 C 6.5 -3.117188 6.660156 -2.515625 6.984375 -1.953125 C 7.304688 -1.398438 7.914062 -1.039062 8.8125 -0.875 C 9.226562 -0.800781 9.53125 -0.710938 9.71875 -0.609375 C 9.914062 -0.515625 10.015625 -0.382812 10.015625 -0.21875 C 10.015625 -0.0703125 9.914062 0.03125 9.71875 0.09375 C 9.53125 0.15625 9.28125 0.1875 8.96875 0.1875 C 8.3125 0.1875 7.816406 0.164062 7.484375 0.125 C 7.160156 0.09375 6.867188 0.0625 6.609375 0.03125 C 6.359375 0.0078125 6.003906 0 5.546875 0 C 5.109375 0 4.769531 0.0078125 4.53125 0.03125 C 4.289062 0.0625 4.015625 0.09375 3.703125 0.125 C 3.390625 0.164062 2.90625 0.1875 2.25 0.1875 C 1.9375 0.1875 1.679688 0.15625 1.484375 0.09375 C 1.296875 0.03125 1.203125 -0.0703125 1.203125 -0.21875 C 1.203125 -0.382812 1.296875 -0.515625 1.484375 -0.609375 C 1.679688 -0.710938 1.984375 -0.8125 2.390625 -0.90625 C 3.097656 -1.101562 3.609375 -1.457031 3.921875 -1.96875 C 4.234375 -2.488281 4.425781 -3.125 4.5 -3.875 C 4.59375 -4.800781 4.6875 -6.019531 4.78125 -7.53125 C 4.882812 -9.039062 4.972656 -10.734375 5.046875 -12.609375 C 5.117188 -14.484375 5.15625 -16.410156 5.15625 -18.390625 C 5.15625 -19.671875 4.820312 -20.585938 4.15625 -21.140625 C 3.488281 -21.703125 2.625 -22.15625 1.5625 -22.5 C 1.46875 -22.539062 1.253906 -22.640625 0.921875 -22.796875 C 0.597656 -22.953125 0.4375 -23.140625 0.4375 -23.359375 C 0.4375 -23.578125 0.546875 -23.71875 0.765625 -23.78125 C 0.984375 -23.84375 1.148438 -23.875 1.265625 -23.875 C 1.972656 -23.851562 2.539062 -23.832031 2.96875 -23.8125 C 3.40625 -23.800781 3.789062 -23.785156 4.125 -23.765625 C 4.46875 -23.742188 4.84375 -23.722656 5.25 -23.703125 C 5.664062 -23.691406 6.203125 -23.6875 6.859375 -23.6875 C 7.078125 -23.6875 7.242188 -23.625 7.359375 -23.5 C 7.484375 -23.382812 7.609375 -23.242188 7.734375 -23.078125 C 7.828125 -22.929688 8.144531 -22.523438 8.6875 -21.859375 C 9.226562 -21.191406 9.90625 -20.351562 10.71875 -19.34375 C 11.53125 -18.34375 12.421875 -17.253906 13.390625 -16.078125 C 14.359375 -14.910156 15.320312 -13.738281 16.28125 -12.5625 C 17.25 -11.394531 18.144531 -10.304688 18.96875 -9.296875 C 19.789062 -8.296875 20.472656 -7.46875 21.015625 -6.8125 C 21.566406 -6.164062 21.890625 -5.78125 21.984375 -5.65625 C 22.078125 -5.5625 22.210938 -5.414062 22.390625 -5.21875 C 22.578125 -5.03125 22.742188 -4.9375 22.890625 -4.9375 C 23.109375 -4.9375 23.226562 -5.191406 23.25 -5.703125 C 23.25 -6.035156 23.253906 -6.679688 23.265625 -7.640625 C 23.285156 -8.597656 23.300781 -9.757812 23.3125 -11.125 C 23.320312 -12.488281 23.328125 -13.96875 23.328125 -15.5625 C 23.328125 -17.15625 23.328125 -18.789062 23.328125 -20.46875 C 23.304688 -20.945312 23.050781 -21.378906 22.5625 -21.765625 C 22.082031 -22.148438 21.632812 -22.378906 21.21875 -22.453125 C 20.8125 -22.523438 20.4375 -22.625 20.09375 -22.75 C 19.757812 -22.875 19.59375 -23.019531 19.59375 -23.1875 C 19.59375 -23.332031 19.757812 -23.429688 20.09375 -23.484375 C 20.4375 -23.546875 20.765625 -23.578125 21.078125 -23.578125 C 21.316406 -23.578125 21.550781 -23.578125 21.78125 -23.578125 C 22.007812 -23.578125 22.238281 -23.578125 22.46875 -23.578125 C 22.707031 -23.578125 22.929688 -23.578125 23.140625 -23.578125 C 23.722656 -23.578125 24.179688 -23.582031 24.515625 -23.59375 C 24.859375 -23.613281 25.226562 -23.632812 25.625 -23.65625 C 26.03125 -23.675781 26.59375 -23.6875 27.3125 -23.6875 C 27.632812 -23.6875 27.890625 -23.65625 28.078125 -23.59375 C 28.273438 -23.539062 28.375 -23.441406 28.375 -23.296875 C 28.375 -22.953125 27.972656 -22.707031 27.171875 -22.5625 C 26.273438 -22.394531 25.679688 -22.175781 25.390625 -21.90625 C 25.109375 -21.644531 24.941406 -21.210938 24.890625 -20.609375 C 24.890625 -20.484375 24.882812 -20.007812 24.875 -19.1875 C 24.863281 -18.363281 24.859375 -17.320312 24.859375 -16.0625 C 24.859375 -14.8125 24.847656 -13.457031 24.828125 -12 C 24.816406 -10.550781 24.8125 -9.109375 24.8125 -7.671875 C 24.8125 -6.234375 24.8125 -4.945312 24.8125 -3.8125 C 24.8125 -3.226562 24.828125 -2.703125 24.859375 -2.234375 C 24.898438 -1.765625 24.929688 -1.363281 24.953125 -1.03125 C 24.984375 -0.707031 25 -0.460938 25 -0.296875 C 25 0.0976562 24.921875 0.347656 24.765625 0.453125 C 24.609375 0.554688 24.429688 0.609375 24.234375 0.609375 Z M 24.234375 0.609375 "/></g></g></g><g fill="#b17d28" fill-opacity="1"><g transform="translate(125.57509, 202.793165)"><g><path d="M 0.984375 0.1875 C 0.671875 0.1875 0.414062 0.140625 0.21875 0.046875 C 0.0195312 -0.0351562 -0.078125 -0.148438 -0.078125 -0.296875 C -0.078125 -0.460938 0.0234375 -0.609375 0.234375 -0.734375 C 0.441406 -0.867188 0.738281 -1 1.125 -1.125 C 1.75 -1.320312 2.328125 -1.613281 2.859375 -2 C 3.398438 -2.382812 3.863281 -3.023438 4.25 -3.921875 C 4.925781 -5.460938 5.546875 -6.910156 6.109375 -8.265625 C 6.679688 -9.617188 7.21875 -10.945312 7.71875 -12.25 C 8.226562 -13.5625 8.753906 -14.925781 9.296875 -16.34375 C 9.847656 -17.757812 10.425781 -19.300781 11.03125 -20.96875 C 11.144531 -21.3125 11.25 -21.648438 11.34375 -21.984375 C 11.445312 -22.328125 11.507812 -22.691406 11.53125 -23.078125 C 11.75 -23.148438 11.96875 -23.222656 12.1875 -23.296875 C 12.40625 -23.367188 12.625 -23.476562 12.84375 -23.625 C 13.0625 -23.769531 13.210938 -23.984375 13.296875 -24.265625 C 13.378906 -24.554688 13.457031 -24.753906 13.53125 -24.859375 C 13.550781 -24.878906 13.578125 -24.890625 13.609375 -24.890625 C 13.648438 -24.890625 13.6875 -24.863281 13.71875 -24.8125 C 13.757812 -24.71875 13.796875 -24.597656 13.828125 -24.453125 C 13.867188 -24.304688 13.914062 -24.160156 13.96875 -24.015625 C 14.550781 -22.179688 15.15625 -20.304688 15.78125 -18.390625 C 16.40625 -16.484375 17.015625 -14.640625 17.609375 -12.859375 C 18.203125 -11.078125 18.742188 -9.476562 19.234375 -8.0625 C 19.734375 -6.65625 20.128906 -5.515625 20.421875 -4.640625 C 20.765625 -3.671875 21.128906 -2.941406 21.515625 -2.453125 C 21.898438 -1.972656 22.300781 -1.632812 22.71875 -1.4375 C 23.144531 -1.25 23.601562 -1.109375 24.09375 -1.015625 C 24.5 -0.941406 24.796875 -0.828125 24.984375 -0.671875 C 25.179688 -0.515625 25.28125 -0.351562 25.28125 -0.1875 C 25.28125 -0.0390625 25.179688 0.0546875 24.984375 0.109375 C 24.796875 0.160156 24.546875 0.1875 24.234375 0.1875 C 23.898438 0.1875 23.441406 0.164062 22.859375 0.125 C 22.273438 0.09375 21.65625 0.0546875 21 0.015625 C 20.351562 -0.015625 19.75 -0.03125 19.1875 -0.03125 C 18.726562 -0.03125 18.253906 -0.03125 17.765625 -0.03125 C 17.285156 -0.03125 16.835938 -0.0234375 16.421875 -0.015625 C 16.015625 -0.00390625 15.671875 0 15.390625 0 C 15.066406 0 14.804688 -0.0351562 14.609375 -0.109375 C 14.421875 -0.179688 14.328125 -0.289062 14.328125 -0.4375 C 14.328125 -0.601562 14.445312 -0.742188 14.6875 -0.859375 C 14.9375 -0.984375 15.21875 -1.070312 15.53125 -1.125 C 16.320312 -1.25 16.882812 -1.453125 17.21875 -1.734375 C 17.5625 -2.023438 17.734375 -2.363281 17.734375 -2.75 C 17.734375 -3.113281 17.65625 -3.640625 17.5 -4.328125 C 17.34375 -5.023438 17.15625 -5.765625 16.9375 -6.546875 C 16.71875 -7.335938 16.515625 -8.035156 16.328125 -8.640625 C 16.273438 -8.828125 16.179688 -8.9375 16.046875 -8.96875 C 15.921875 -9.007812 15.6875 -9.03125 15.34375 -9.03125 L 8.484375 -9.03125 C 8.390625 -9.03125 8.285156 -8.988281 8.171875 -8.90625 C 8.066406 -8.820312 7.96875 -8.644531 7.875 -8.375 C 7.800781 -8.132812 7.675781 -7.753906 7.5 -7.234375 C 7.332031 -6.710938 7.164062 -6.160156 7 -5.578125 C 6.832031 -5.003906 6.6875 -4.488281 6.5625 -4.03125 C 6.445312 -3.570312 6.390625 -3.28125 6.390625 -3.15625 C 6.390625 -2.625 6.59375 -2.179688 7 -1.828125 C 7.414062 -1.484375 7.910156 -1.238281 8.484375 -1.09375 C 9.285156 -0.875 9.6875 -0.628906 9.6875 -0.359375 C 9.6875 -0.210938 9.585938 -0.109375 9.390625 -0.046875 C 9.203125 0.00390625 8.953125 0.03125 8.640625 0.03125 C 8.316406 0.03125 7.851562 0.0195312 7.25 0 C 6.644531 -0.0195312 6.003906 -0.03125 5.328125 -0.03125 C 4.535156 -0.03125 3.765625 0.00390625 3.015625 0.078125 C 2.265625 0.148438 1.585938 0.1875 0.984375 0.1875 Z M 9.46875 -10.234375 L 15.09375 -10.234375 C 15.425781 -10.234375 15.59375 -10.289062 15.59375 -10.40625 C 15.59375 -10.457031 15.585938 -10.515625 15.578125 -10.578125 C 15.566406 -10.640625 15.550781 -10.707031 15.53125 -10.78125 L 12.703125 -19.625 C 12.554688 -20.0625 12.445312 -20.28125 12.375 -20.28125 C 12.320312 -20.28125 12.222656 -20.078125 12.078125 -19.671875 L 8.78125 -10.78125 C 8.726562 -10.632812 8.703125 -10.535156 8.703125 -10.484375 C 8.703125 -10.359375 8.769531 -10.285156 8.90625 -10.265625 C 9.039062 -10.242188 9.226562 -10.234375 9.46875 -10.234375 Z M 9.46875 -10.234375 "/></g></g></g><g fill="#b17d28" fill-opacity="1"><g transform="translate(154.925201, 202.793165)"><g><path d="M 24.234375 0.609375 C 24.015625 0.609375 23.582031 0.425781 22.9375 0.0625 C 22.300781 -0.289062 21.691406 -0.867188 21.109375 -1.671875 C 21.015625 -1.785156 20.71875 -2.144531 20.21875 -2.75 C 19.726562 -3.363281 19.101562 -4.125 18.34375 -5.03125 C 17.582031 -5.9375 16.753906 -6.921875 15.859375 -7.984375 C 14.960938 -9.046875 14.066406 -10.109375 13.171875 -11.171875 C 12.273438 -12.234375 11.4375 -13.21875 10.65625 -14.125 C 9.882812 -15.03125 9.238281 -15.789062 8.71875 -16.40625 C 8.207031 -17.03125 7.890625 -17.414062 7.765625 -17.5625 C 7.597656 -17.78125 7.453125 -17.929688 7.328125 -18.015625 C 7.203125 -18.097656 7.09375 -18.140625 7 -18.140625 C 6.882812 -18.140625 6.800781 -18.046875 6.75 -17.859375 C 6.695312 -17.679688 6.671875 -17.519531 6.671875 -17.375 C 6.648438 -16.1875 6.625 -14.816406 6.59375 -13.265625 C 6.570312 -11.722656 6.550781 -10.128906 6.53125 -8.484375 C 6.507812 -6.835938 6.5 -5.265625 6.5 -3.765625 C 6.5 -3.117188 6.660156 -2.515625 6.984375 -1.953125 C 7.304688 -1.398438 7.914062 -1.039062 8.8125 -0.875 C 9.226562 -0.800781 9.53125 -0.710938 9.71875 -0.609375 C 9.914062 -0.515625 10.015625 -0.382812 10.015625 -0.21875 C 10.015625 -0.0703125 9.914062 0.03125 9.71875 0.09375 C 9.53125 0.15625 9.28125 0.1875 8.96875 0.1875 C 8.3125 0.1875 7.816406 0.164062 7.484375 0.125 C 7.160156 0.09375 6.867188 0.0625 6.609375 0.03125 C 6.359375 0.0078125 6.003906 0 5.546875 0 C 5.109375 0 4.769531 0.0078125 4.53125 0.03125 C 4.289062 0.0625 4.015625 0.09375 3.703125 0.125 C 3.390625 0.164062 2.90625 0.1875 2.25 0.1875 C 1.9375 0.1875 1.679688 0.15625 1.484375 0.09375 C 1.296875 0.03125 1.203125 -0.0703125 1.203125 -0.21875 C 1.203125 -0.382812 1.296875 -0.515625 1.484375 -0.609375 C 1.679688 -0.710938 1.984375 -0.8125 2.390625 -0.90625 C 3.097656 -1.101562 3.609375 -1.457031 3.921875 -1.96875 C 4.234375 -2.488281 4.425781 -3.125 4.5 -3.875 C 4.59375 -4.800781 4.6875 -6.019531 4.78125 -7.53125 C 4.882812 -9.039062 4.972656 -10.734375 5.046875 -12.609375 C 5.117188 -14.484375 5.15625 -16.410156 5.15625 -18.390625 C 5.15625 -19.671875 4.820312 -20.585938 4.15625 -21.140625 C 3.488281 -21.703125 2.625 -22.15625 1.5625 -22.5 C 1.46875 -22.539062 1.253906 -22.640625 0.921875 -22.796875 C 0.597656 -22.953125 0.4375 -23.140625 0.4375 -23.359375 C 0.4375 -23.578125 0.546875 -23.71875 0.765625 -23.78125 C 0.984375 -23.84375 1.148438 -23.875 1.265625 -23.875 C 1.972656 -23.851562 2.539062 -23.832031 2.96875 -23.8125 C 3.40625 -23.800781 3.789062 -23.785156 4.125 -23.765625 C 4.46875 -23.742188 4.84375 -23.722656 5.25 -23.703125 C 5.664062 -23.691406 6.203125 -23.6875 6.859375 -23.6875 C 7.078125 -23.6875 7.242188 -23.625 7.359375 -23.5 C 7.484375 -23.382812 7.609375 -23.242188 7.734375 -23.078125 C 7.828125 -22.929688 8.144531 -22.523438 8.6875 -21.859375 C 9.226562 -21.191406 9.90625 -20.351562 10.71875 -19.34375 C 11.53125 -18.34375 12.421875 -17.253906 13.390625 -16.078125 C 14.359375 -14.910156 15.320312 -13.738281 16.28125 -12.5625 C 17.25 -11.394531 18.144531 -10.304688 18.96875 -9.296875 C 19.789062 -8.296875 20.472656 -7.46875 21.015625 -6.8125 C 21.566406 -6.164062 21.890625 -5.78125 21.984375 -5.65625 C 22.078125 -5.5625 22.210938 -5.414062 22.390625 -5.21875 C 22.578125 -5.03125 22.742188 -4.9375 22.890625 -4.9375 C 23.109375 -4.9375 23.226562 -5.191406 23.25 -5.703125 C 23.25 -6.035156 23.253906 -6.679688 23.265625 -7.640625 C 23.285156 -8.597656 23.300781 -9.757812 23.3125 -11.125 C 23.320312 -12.488281 23.328125 -13.96875 23.328125 -15.5625 C 23.328125 -17.15625 23.328125 -18.789062 23.328125 -20.46875 C 23.304688 -20.945312 23.050781 -21.378906 22.5625 -21.765625 C 22.082031 -22.148438 21.632812 -22.378906 21.21875 -22.453125 C 20.8125 -22.523438 20.4375 -22.625 20.09375 -22.75 C 19.757812 -22.875 19.59375 -23.019531 19.59375 -23.1875 C 19.59375 -23.332031 19.757812 -23.429688 20.09375 -23.484375 C 20.4375 -23.546875 20.765625 -23.578125 21.078125 -23.578125 C 21.316406 -23.578125 21.550781 -23.578125 21.78125 -23.578125 C 22.007812 -23.578125 22.238281 -23.578125 22.46875 -23.578125 C 22.707031 -23.578125 22.929688 -23.578125 23.140625 -23.578125 C 23.722656 -23.578125 24.179688 -23.582031 24.515625 -23.59375 C 24.859375 -23.613281 25.226562 -23.632812 25.625 -23.65625 C 26.03125 -23.675781 26.59375 -23.6875 27.3125 -23.6875 C 27.632812 -23.6875 27.890625 -23.65625 28.078125 -23.59375 C 28.273438 -23.539062 28.375 -23.441406 28.375 -23.296875 C 28.375 -22.953125 27.972656 -22.707031 27.171875 -22.5625 C 26.273438 -22.394531 25.679688 -22.175781 25.390625 -21.90625 C 25.109375 -21.644531 24.941406 -21.210938 24.890625 -20.609375 C 24.890625 -20.484375 24.882812 -20.007812 24.875 -19.1875 C 24.863281 -18.363281 24.859375 -17.320312 24.859375 -16.0625 C 24.859375 -14.8125 24.847656 -13.457031 24.828125 -12 C 24.816406 -10.550781 24.8125 -9.109375 24.8125 -7.671875 C 24.8125 -6.234375 24.8125 -4.945312 24.8125 -3.8125 C 24.8125 -3.226562 24.828125 -2.703125 24.859375 -2.234375 C 24.898438 -1.765625 24.929688 -1.363281 24.953125 -1.03125 C 24.984375 -0.707031 25 -0.460938 25 -0.296875 C 25 0.0976562 24.921875 0.347656 24.765625 0.453125 C 24.609375 0.554688 24.429688 0.609375 24.234375 0.609375 Z M 24.234375 0.609375 "/></g></g></g><g fill="#b17d28" fill-opacity="1"><g transform="translate(187.903134, 202.793165)"><g><path d="M 13.453125 0.25 C 13.210938 0.25 12.675781 0.222656 11.84375 0.171875 C 11.007812 0.128906 10.050781 0.0859375 8.96875 0.046875 C 7.894531 0.015625 6.875 0 5.90625 0 C 5.425781 0 5.019531 0.0078125 4.6875 0.03125 C 4.363281 0.0625 4.015625 0.09375 3.640625 0.125 C 3.265625 0.164062 2.753906 0.1875 2.109375 0.1875 C 1.785156 0.1875 1.523438 0.148438 1.328125 0.078125 C 1.140625 0.00390625 1.046875 -0.117188 1.046875 -0.296875 C 1.046875 -0.484375 1.140625 -0.609375 1.328125 -0.671875 C 1.523438 -0.734375 1.832031 -0.800781 2.25 -0.875 C 3.164062 -1.039062 3.800781 -1.316406 4.15625 -1.703125 C 4.507812 -2.085938 4.6875 -2.71875 4.6875 -3.59375 L 4.6875 -19.921875 C 4.6875 -20.785156 4.507812 -21.398438 4.15625 -21.765625 C 3.800781 -22.128906 3.164062 -22.394531 2.25 -22.5625 C 1.832031 -22.632812 1.523438 -22.710938 1.328125 -22.796875 C 1.140625 -22.890625 1.046875 -23.03125 1.046875 -23.21875 C 1.046875 -23.382812 1.140625 -23.503906 1.328125 -23.578125 C 1.523438 -23.648438 1.785156 -23.6875 2.109375 -23.6875 C 2.734375 -23.6875 3.234375 -23.679688 3.609375 -23.671875 C 3.984375 -23.660156 4.351562 -23.648438 4.71875 -23.640625 C 5.082031 -23.628906 5.550781 -23.625 6.125 -23.625 C 6.519531 -23.625 7.007812 -23.632812 7.59375 -23.65625 C 8.1875 -23.675781 8.800781 -23.710938 9.4375 -23.765625 C 10.082031 -23.816406 10.664062 -23.851562 11.1875 -23.875 C 11.707031 -23.894531 12.085938 -23.90625 12.328125 -23.90625 C 14.796875 -23.90625 16.898438 -23.609375 18.640625 -23.015625 C 20.390625 -22.421875 21.804688 -21.597656 22.890625 -20.546875 C 23.984375 -19.492188 24.789062 -18.269531 25.3125 -16.875 C 25.832031 -15.488281 26.09375 -14 26.09375 -12.40625 C 26.09375 -10.664062 25.765625 -9.03125 25.109375 -7.5 C 24.453125 -5.976562 23.539062 -4.628906 22.375 -3.453125 C 21.21875 -2.285156 19.878906 -1.375 18.359375 -0.71875 C 16.835938 -0.0703125 15.203125 0.25 13.453125 0.25 Z M 13.03125 -1.015625 C 14.914062 -1.015625 16.582031 -1.472656 18.03125 -2.390625 C 19.476562 -3.304688 20.609375 -4.578125 21.421875 -6.203125 C 22.234375 -7.828125 22.640625 -9.691406 22.640625 -11.796875 C 22.640625 -13.535156 22.347656 -15.085938 21.765625 -16.453125 C 21.179688 -17.816406 20.40625 -18.960938 19.4375 -19.890625 C 18.476562 -20.828125 17.394531 -21.539062 16.1875 -22.03125 C 14.976562 -22.53125 13.753906 -22.78125 12.515625 -22.78125 C 11.472656 -22.78125 10.582031 -22.75 9.84375 -22.6875 C 9.113281 -22.632812 8.550781 -22.445312 8.15625 -22.125 C 7.769531 -21.8125 7.578125 -21.296875 7.578125 -20.578125 L 7.578125 -4.390625 C 7.578125 -3.421875 7.84375 -2.691406 8.375 -2.203125 C 8.90625 -1.722656 9.585938 -1.40625 10.421875 -1.25 C 11.265625 -1.09375 12.132812 -1.015625 13.03125 -1.015625 Z M 13.03125 -1.015625 "/></g></g></g><g fill="#b17d28" fill-opacity="1"><g transform="translate(219.502499, 202.793165)"><g><path d="M 0.984375 0.1875 C 0.671875 0.1875 0.414062 0.140625 0.21875 0.046875 C 0.0195312 -0.0351562 -0.078125 -0.148438 -0.078125 -0.296875 C -0.078125 -0.460938 0.0234375 -0.609375 0.234375 -0.734375 C 0.441406 -0.867188 0.738281 -1 1.125 -1.125 C 1.75 -1.320312 2.328125 -1.613281 2.859375 -2 C 3.398438 -2.382812 3.863281 -3.023438 4.25 -3.921875 C 4.925781 -5.460938 5.546875 -6.910156 6.109375 -8.265625 C 6.679688 -9.617188 7.21875 -10.945312 7.71875 -12.25 C 8.226562 -13.5625 8.753906 -14.925781 9.296875 -16.34375 C 9.847656 -17.757812 10.425781 -19.300781 11.03125 -20.96875 C 11.144531 -21.3125 11.25 -21.648438 11.34375 -21.984375 C 11.445312 -22.328125 11.507812 -22.691406 11.53125 -23.078125 C 11.75 -23.148438 11.96875 -23.222656 12.1875 -23.296875 C 12.40625 -23.367188 12.625 -23.476562 12.84375 -23.625 C 13.0625 -23.769531 13.210938 -23.984375 13.296875 -24.265625 C 13.378906 -24.554688 13.457031 -24.753906 13.53125 -24.859375 C 13.550781 -24.878906 13.578125 -24.890625 13.609375 -24.890625 C 13.648438 -24.890625 13.6875 -24.863281 13.71875 -24.8125 C 13.757812 -24.71875 13.796875 -24.597656 13.828125 -24.453125 C 13.867188 -24.304688 13.914062 -24.160156 13.96875 -24.015625 C 14.550781 -22.179688 15.15625 -20.304688 15.78125 -18.390625 C 16.40625 -16.484375 17.015625 -14.640625 17.609375 -12.859375 C 18.203125 -11.078125 18.742188 -9.476562 19.234375 -8.0625 C 19.734375 -6.65625 20.128906 -5.515625 20.421875 -4.640625 C 20.765625 -3.671875 21.128906 -2.941406 21.515625 -2.453125 C 21.898438 -1.972656 22.300781 -1.632812 22.71875 -1.4375 C 23.144531 -1.25 23.601562 -1.109375 24.09375 -1.015625 C 24.5 -0.941406 24.796875 -0.828125 24.984375 -0.671875 C 25.179688 -0.515625 25.28125 -0.351562 25.28125 -0.1875 C 25.28125 -0.0390625 25.179688 0.0546875 24.984375 0.109375 C 24.796875 0.160156 24.546875 0.1875 24.234375 0.1875 C 23.898438 0.1875 23.441406 0.164062 22.859375 0.125 C 22.273438 0.09375 21.65625 0.0546875 21 0.015625 C 20.351562 -0.015625 19.75 -0.03125 19.1875 -0.03125 C 18.726562 -0.03125 18.253906 -0.03125 17.765625 -0.03125 C 17.285156 -0.03125 16.835938 -0.0234375 16.421875 -0.015625 C 16.015625 -0.00390625 15.671875 0 15.390625 0 C 15.066406 0 14.804688 -0.0351562 14.609375 -0.109375 C 14.421875 -0.179688 14.328125 -0.289062 14.328125 -0.4375 C 14.328125 -0.601562 14.445312 -0.742188 14.6875 -0.859375 C 14.9375 -0.984375 15.21875 -1.070312 15.53125 -1.125 C 16.320312 -1.25 16.882812 -1.453125 17.21875 -1.734375 C 17.5625 -2.023438 17.734375 -2.363281 17.734375 -2.75 C 17.734375 -3.113281 17.65625 -3.640625 17.5 -4.328125 C 17.34375 -5.023438 17.15625 -5.765625 16.9375 -6.546875 C 16.71875 -7.335938 16.515625 -8.035156 16.328125 -8.640625 C 16.273438 -8.828125 16.179688 -8.9375 16.046875 -8.96875 C 15.921875 -9.007812 15.6875 -9.03125 15.34375 -9.03125 L 8.484375 -9.03125 C 8.390625 -9.03125 8.285156 -8.988281 8.171875 -8.90625 C 8.066406 -8.820312 7.96875 -8.644531 7.875 -8.375 C 7.800781 -8.132812 7.675781 -7.753906 7.5 -7.234375 C 7.332031 -6.710938 7.164062 -6.160156 7 -5.578125 C 6.832031 -5.003906 6.6875 -4.488281 6.5625 -4.03125 C 6.445312 -3.570312 6.390625 -3.28125 6.390625 -3.15625 C 6.390625 -2.625 6.59375 -2.179688 7 -1.828125 C 7.414062 -1.484375 7.910156 -1.238281 8.484375 -1.09375 C 9.285156 -0.875 9.6875 -0.628906 9.6875 -0.359375 C 9.6875 -0.210938 9.585938 -0.109375 9.390625 -0.046875 C 9.203125 0.00390625 8.953125 0.03125 8.640625 0.03125 C 8.316406 0.03125 7.851562 0.0195312 7.25 0 C 6.644531 -0.0195312 6.003906 -0.03125 5.328125 -0.03125 C 4.535156 -0.03125 3.765625 0.00390625 3.015625 0.078125 C 2.265625 0.148438 1.585938 0.1875 0.984375 0.1875 Z M 9.46875 -10.234375 L 15.09375 -10.234375 C 15.425781 -10.234375 15.59375 -10.289062 15.59375 -10.40625 C 15.59375 -10.457031 15.585938 -10.515625 15.578125 -10.578125 C 15.566406 -10.640625 15.550781 -10.707031 15.53125 -10.78125 L 12.703125 -19.625 C 12.554688 -20.0625 12.445312 -20.28125 12.375 -20.28125 C 12.320312 -20.28125 12.222656 -20.078125 12.078125 -19.671875 L 8.78125 -10.78125 C 8.726562 -10.632812 8.703125 -10.535156 8.703125 -10.484375 C 8.703125 -10.359375 8.769531 -10.285156 8.90625 -10.265625 C 9.039062 -10.242188 9.226562 -10.234375 9.46875 -10.234375 Z M 9.46875 -10.234375 "/></g></g></g><g fill="#b17d28" fill-opacity="1"><g transform="translate(248.852626, 202.793165)"><g/></g></g><g fill="#b17d28" fill-opacity="1"><g transform="translate(260.353879, 202.793165)"><g><path d="M 2.390625 0.1875 C 2.078125 0.1875 1.820312 0.15625 1.625 0.09375 C 1.4375 0.03125 1.34375 -0.0703125 1.34375 -0.21875 C 1.34375 -0.507812 1.742188 -0.726562 2.546875 -0.875 C 3.460938 -1.039062 4.132812 -1.316406 4.5625 -1.703125 C 5 -2.085938 5.21875 -2.71875 5.21875 -3.59375 L 5.21875 -19.921875 C 5.21875 -20.785156 5.039062 -21.398438 4.6875 -21.765625 C 4.34375 -22.128906 3.710938 -22.394531 2.796875 -22.5625 C 2.378906 -22.632812 2.070312 -22.726562 1.875 -22.84375 C 1.6875 -22.96875 1.59375 -23.117188 1.59375 -23.296875 C 1.59375 -23.441406 1.6875 -23.539062 1.875 -23.59375 C 2.070312 -23.65625 2.332031 -23.6875 2.65625 -23.6875 C 3.570312 -23.6875 4.347656 -23.675781 4.984375 -23.65625 C 5.628906 -23.632812 6.257812 -23.613281 6.875 -23.59375 C 7.488281 -23.582031 8.222656 -23.578125 9.078125 -23.578125 C 9.867188 -23.578125 10.707031 -23.582031 11.59375 -23.59375 C 12.476562 -23.613281 13.296875 -23.625 14.046875 -23.625 C 14.867188 -23.644531 15.5625 -23.660156 16.125 -23.671875 C 16.695312 -23.679688 17.03125 -23.6875 17.125 -23.6875 C 17.25 -23.6875 17.378906 -23.660156 17.515625 -23.609375 C 17.660156 -23.566406 17.75 -23.484375 17.78125 -23.359375 C 17.894531 -22.679688 18.015625 -22.007812 18.140625 -21.34375 C 18.265625 -20.6875 18.328125 -20.113281 18.328125 -19.625 C 18.328125 -19.40625 18.269531 -19.257812 18.15625 -19.1875 C 18.050781 -19.113281 17.9375 -19.078125 17.8125 -19.078125 C 17.6875 -19.078125 17.597656 -19.109375 17.546875 -19.171875 C 17.503906 -19.234375 17.460938 -19.328125 17.421875 -19.453125 C 17.296875 -19.859375 17.171875 -20.25 17.046875 -20.625 C 16.929688 -21 16.785156 -21.269531 16.609375 -21.4375 C 16.273438 -21.820312 15.898438 -22.082031 15.484375 -22.21875 C 15.078125 -22.351562 14.644531 -22.421875 14.1875 -22.421875 L 9.4375 -22.421875 C 9.238281 -22.421875 8.96875 -22.3125 8.625 -22.09375 C 8.289062 -21.875 8.125 -21.597656 8.125 -21.265625 L 8.125 -13.5625 C 8.125 -13.351562 8.191406 -13.164062 8.328125 -13 C 8.460938 -12.84375 8.613281 -12.765625 8.78125 -12.765625 L 12.375 -12.765625 C 13.070312 -12.765625 13.550781 -12.890625 13.8125 -13.140625 C 14.082031 -13.398438 14.300781 -13.867188 14.46875 -14.546875 C 14.613281 -15.078125 14.832031 -15.34375 15.125 -15.34375 C 15.226562 -15.34375 15.332031 -15.296875 15.4375 -15.203125 C 15.539062 -15.109375 15.59375 -14.960938 15.59375 -14.765625 C 15.59375 -14.671875 15.585938 -14.453125 15.578125 -14.109375 C 15.566406 -13.773438 15.546875 -13.425781 15.515625 -13.0625 C 15.492188 -12.695312 15.484375 -12.421875 15.484375 -12.234375 C 15.484375 -11.984375 15.488281 -11.660156 15.5 -11.265625 C 15.519531 -10.867188 15.535156 -10.488281 15.546875 -10.125 C 15.554688 -9.757812 15.5625 -9.53125 15.5625 -9.4375 C 15.5625 -9.257812 15.539062 -9.109375 15.5 -8.984375 C 15.46875 -8.867188 15.378906 -8.8125 15.234375 -8.8125 C 14.867188 -8.8125 14.59375 -9.203125 14.40625 -9.984375 C 14.257812 -10.535156 14.0625 -10.941406 13.8125 -11.203125 C 13.570312 -11.472656 13.210938 -11.609375 12.734375 -11.609375 L 9.359375 -11.609375 C 8.953125 -11.609375 8.644531 -11.550781 8.4375 -11.4375 C 8.226562 -11.332031 8.125 -11.078125 8.125 -10.671875 L 8.125 -3.703125 C 8.125 -2.785156 8.316406 -2.148438 8.703125 -1.796875 C 9.085938 -1.441406 9.691406 -1.265625 10.515625 -1.265625 L 13.203125 -1.265625 C 13.984375 -1.265625 14.628906 -1.304688 15.140625 -1.390625 C 15.660156 -1.484375 16.117188 -1.648438 16.515625 -1.890625 C 16.898438 -2.148438 17.242188 -2.5 17.546875 -2.9375 C 17.847656 -3.375 18.191406 -3.957031 18.578125 -4.6875 C 18.648438 -4.820312 18.734375 -4.9375 18.828125 -5.03125 C 18.921875 -5.132812 19.03125 -5.175781 19.15625 -5.15625 C 19.28125 -5.125 19.378906 -5.066406 19.453125 -4.984375 C 19.523438 -4.898438 19.5625 -4.785156 19.5625 -4.640625 C 19.5625 -4.421875 19.5 -4.039062 19.375 -3.5 C 19.25 -2.957031 19.097656 -2.394531 18.921875 -1.8125 C 18.742188 -1.226562 18.582031 -0.769531 18.4375 -0.4375 C 18.363281 -0.269531 18.296875 -0.125 18.234375 0 C 18.171875 0.125 18.066406 0.1875 17.921875 0.1875 C 16.765625 0.1875 15.6875 0.171875 14.6875 0.140625 C 13.695312 0.117188 12.753906 0.09375 11.859375 0.0625 C 10.960938 0.0390625 10.085938 0.0195312 9.234375 0 C 8.378906 -0.0195312 7.488281 -0.03125 6.5625 -0.03125 C 6.03125 -0.03125 5.570312 -0.015625 5.1875 0.015625 C 4.800781 0.0546875 4.398438 0.09375 3.984375 0.125 C 3.578125 0.164062 3.046875 0.1875 2.390625 0.1875 Z M 2.390625 0.1875 "/></g></g></g><g fill="#b17d28" fill-opacity="1"><g transform="translate(285.060402, 202.793165)"><g/></g></g><g fill="#b17d28" fill-opacity="1"><g transform="translate(296.561656, 202.793165)"><g><path d="M 23.109375 0.765625 C 22.429688 0.765625 21.789062 0.707031 21.1875 0.59375 C 20.582031 0.488281 20.023438 0.289062 19.515625 0 C 19.003906 -0.289062 18.535156 -0.691406 18.109375 -1.203125 C 17.523438 -1.921875 16.96875 -2.613281 16.4375 -3.28125 C 15.90625 -3.945312 15.34375 -4.710938 14.75 -5.578125 C 14.15625 -6.453125 13.4375 -7.566406 12.59375 -8.921875 C 12.226562 -9.523438 11.707031 -10 11.03125 -10.34375 C 10.5 -10.601562 9.972656 -10.785156 9.453125 -10.890625 C 8.929688 -11.003906 8.5 -11.078125 8.15625 -11.109375 C 7.96875 -11.128906 7.832031 -11.066406 7.75 -10.921875 C 7.664062 -10.773438 7.625 -10.59375 7.625 -10.375 L 7.625 -3.984375 C 7.625 -3.210938 7.800781 -2.539062 8.15625 -1.96875 C 8.519531 -1.40625 9.148438 -1.039062 10.046875 -0.875 C 10.460938 -0.800781 10.765625 -0.710938 10.953125 -0.609375 C 11.148438 -0.515625 11.25 -0.382812 11.25 -0.21875 C 11.25 -0.0703125 11.148438 0.03125 10.953125 0.09375 C 10.765625 0.15625 10.507812 0.1875 10.1875 0.1875 C 9.539062 0.1875 9.039062 0.160156 8.6875 0.109375 C 8.332031 0.0546875 8.015625 0.015625 7.734375 -0.015625 C 7.460938 -0.0546875 7.097656 -0.078125 6.640625 -0.078125 C 6.035156 -0.078125 5.492188 -0.0546875 5.015625 -0.015625 C 4.546875 0.015625 4.078125 0.0546875 3.609375 0.109375 C 3.140625 0.160156 2.578125 0.1875 1.921875 0.1875 C 1.609375 0.1875 1.351562 0.15625 1.15625 0.09375 C 0.96875 0.03125 0.875 -0.0703125 0.875 -0.21875 C 0.875 -0.507812 1.269531 -0.726562 2.0625 -0.875 C 2.988281 -1.039062 3.660156 -1.316406 4.078125 -1.703125 C 4.503906 -2.085938 4.71875 -2.726562 4.71875 -3.625 L 4.71875 -19.078125 C 4.71875 -20.003906 4.675781 -20.703125 4.59375 -21.171875 C 4.507812 -21.640625 4.316406 -21.96875 4.015625 -22.15625 C 3.710938 -22.351562 3.207031 -22.488281 2.5 -22.5625 C 2.09375 -22.613281 1.789062 -22.703125 1.59375 -22.828125 C 1.40625 -22.960938 1.3125 -23.117188 1.3125 -23.296875 C 1.3125 -23.441406 1.40625 -23.539062 1.59375 -23.59375 C 1.789062 -23.65625 2.046875 -23.6875 2.359375 -23.6875 C 3.015625 -23.6875 3.503906 -23.6875 3.828125 -23.6875 C 4.148438 -23.6875 4.457031 -23.679688 4.75 -23.671875 C 5.039062 -23.660156 5.425781 -23.65625 5.90625 -23.65625 C 6.375 -23.65625 6.785156 -23.671875 7.140625 -23.703125 C 7.503906 -23.742188 7.910156 -23.773438 8.359375 -23.796875 C 8.804688 -23.828125 9.382812 -23.84375 10.09375 -23.84375 C 12.75 -23.84375 14.769531 -23.34375 16.15625 -22.34375 C 17.550781 -21.351562 18.25 -19.867188 18.25 -17.890625 C 18.25 -16.796875 18.03125 -15.851562 17.59375 -15.0625 C 17.15625 -14.28125 16.609375 -13.625 15.953125 -13.09375 C 15.304688 -12.5625 14.644531 -12.128906 13.96875 -11.796875 C 13.875 -11.765625 13.832031 -11.707031 13.84375 -11.625 C 13.851562 -11.539062 13.894531 -11.4375 13.96875 -11.3125 C 14.71875 -10.175781 15.4375 -9.097656 16.125 -8.078125 C 16.8125 -7.066406 17.566406 -6.078125 18.390625 -5.109375 C 19.210938 -4.148438 20.191406 -3.148438 21.328125 -2.109375 C 21.960938 -1.546875 22.601562 -1.203125 23.25 -1.078125 C 23.90625 -0.960938 24.65625 -0.90625 25.5 -0.90625 C 25.863281 -0.90625 26.046875 -0.773438 26.046875 -0.515625 C 26.046875 -0.148438 25.863281 0.117188 25.5 0.296875 C 25.144531 0.484375 24.734375 0.609375 24.265625 0.671875 C 23.804688 0.734375 23.421875 0.765625 23.109375 0.765625 Z M 9.546875 -11.9375 C 10.648438 -11.9375 11.609375 -12.1875 12.421875 -12.6875 C 13.234375 -13.195312 13.863281 -13.863281 14.3125 -14.6875 C 14.757812 -15.507812 14.984375 -16.382812 14.984375 -17.3125 C 14.984375 -18.300781 14.851562 -19.207031 14.59375 -20.03125 C 14.34375 -20.851562 13.835938 -21.507812 13.078125 -22 C 12.316406 -22.5 11.175781 -22.75 9.65625 -22.75 C 8.875 -22.75 8.363281 -22.5 8.125 -22 C 7.882812 -21.507812 7.738281 -20.632812 7.6875 -19.375 C 7.664062 -18.769531 7.648438 -17.953125 7.640625 -16.921875 C 7.628906 -15.898438 7.625 -14.660156 7.625 -13.203125 C 7.625 -12.597656 7.789062 -12.234375 8.125 -12.109375 C 8.46875 -11.992188 8.941406 -11.9375 9.546875 -11.9375 Z M 9.546875 -11.9375 "/></g></g></g><g fill="#b17d28" fill-opacity="1"><g transform="translate(326.673615, 202.793165)"><g><path d="M 13.671875 0.515625 C 12.078125 0.515625 10.554688 0.226562 9.109375 -0.34375 C 7.660156 -0.914062 6.378906 -1.726562 5.265625 -2.78125 C 4.148438 -3.832031 3.265625 -5.085938 2.609375 -6.546875 C 1.953125 -8.015625 1.625 -9.640625 1.625 -11.421875 C 1.625 -13.066406 1.890625 -14.644531 2.421875 -16.15625 C 2.960938 -17.675781 3.75 -19.023438 4.78125 -20.203125 C 5.820312 -21.390625 7.117188 -22.332031 8.671875 -23.03125 C 10.222656 -23.738281 12 -24.09375 14 -24.09375 C 15.601562 -24.09375 17.128906 -23.804688 18.578125 -23.234375 C 20.023438 -22.671875 21.304688 -21.863281 22.421875 -20.8125 C 23.535156 -19.757812 24.414062 -18.5 25.0625 -17.03125 C 25.71875 -15.570312 26.046875 -13.945312 26.046875 -12.15625 C 26.046875 -10.53125 25.78125 -8.957031 25.25 -7.4375 C 24.71875 -5.914062 23.929688 -4.5625 22.890625 -3.375 C 21.847656 -2.1875 20.550781 -1.238281 19 -0.53125 C 17.457031 0.164062 15.679688 0.515625 13.671875 0.515625 Z M 14.21875 -0.9375 C 16.082031 -0.9375 17.628906 -1.328125 18.859375 -2.109375 C 20.097656 -2.898438 21.023438 -4.003906 21.640625 -5.421875 C 22.253906 -6.835938 22.5625 -8.488281 22.5625 -10.375 C 22.5625 -12.039062 22.367188 -13.613281 21.984375 -15.09375 C 21.597656 -16.570312 21.023438 -17.875 20.265625 -19 C 19.503906 -20.125 18.550781 -21 17.40625 -21.625 C 16.269531 -22.25 14.941406 -22.5625 13.421875 -22.5625 C 11.609375 -22.5625 10.082031 -22.175781 8.84375 -21.40625 C 7.613281 -20.632812 6.679688 -19.550781 6.046875 -18.15625 C 5.421875 -16.769531 5.109375 -15.132812 5.109375 -13.25 C 5.109375 -11.550781 5.296875 -9.960938 5.671875 -8.484375 C 6.046875 -7.015625 6.613281 -5.707031 7.375 -4.5625 C 8.144531 -3.425781 9.097656 -2.535156 10.234375 -1.890625 C 11.367188 -1.253906 12.695312 -0.9375 14.21875 -0.9375 Z M 14.21875 -0.9375 "/></g></g></g><g fill="#b17d28" fill-opacity="1"><g transform="translate(358.599493, 202.793165)"><g><path d="M 13.453125 0.25 C 13.210938 0.25 12.675781 0.222656 11.84375 0.171875 C 11.007812 0.128906 10.050781 0.0859375 8.96875 0.046875 C 7.894531 0.015625 6.875 0 5.90625 0 C 5.425781 0 5.019531 0.0078125 4.6875 0.03125 C 4.363281 0.0625 4.015625 0.09375 3.640625 0.125 C 3.265625 0.164062 2.753906 0.1875 2.109375 0.1875 C 1.785156 0.1875 1.523438 0.148438 1.328125 0.078125 C 1.140625 0.00390625 1.046875 -0.117188 1.046875 -0.296875 C 1.046875 -0.484375 1.140625 -0.609375 1.328125 -0.671875 C 1.523438 -0.734375 1.832031 -0.800781 2.25 -0.875 C 3.164062 -1.039062 3.800781 -1.316406 4.15625 -1.703125 C 4.507812 -2.085938 4.6875 -2.71875 4.6875 -3.59375 L 4.6875 -19.921875 C 4.6875 -20.785156 4.507812 -21.398438 4.15625 -21.765625 C 3.800781 -22.128906 3.164062 -22.394531 2.25 -22.5625 C 1.832031 -22.632812 1.523438 -22.710938 1.328125 -22.796875 C 1.140625 -22.890625 1.046875 -23.03125 1.046875 -23.21875 C 1.046875 -23.382812 1.140625 -23.503906 1.328125 -23.578125 C 1.523438 -23.648438 1.785156 -23.6875 2.109375 -23.6875 C 2.734375 -23.6875 3.234375 -23.679688 3.609375 -23.671875 C 3.984375 -23.660156 4.351562 -23.648438 4.71875 -23.640625 C 5.082031 -23.628906 5.550781 -23.625 6.125 -23.625 C 6.519531 -23.625 7.007812 -23.632812 7.59375 -23.65625 C 8.1875 -23.675781 8.800781 -23.710938 9.4375 -23.765625 C 10.082031 -23.816406 10.664062 -23.851562 11.1875 -23.875 C 11.707031 -23.894531 12.085938 -23.90625 12.328125 -23.90625 C 14.796875 -23.90625 16.898438 -23.609375 18.640625 -23.015625 C 20.390625 -22.421875 21.804688 -21.597656 22.890625 -20.546875 C 23.984375 -19.492188 24.789062 -18.269531 25.3125 -16.875 C 25.832031 -15.488281 26.09375 -14 26.09375 -12.40625 C 26.09375 -10.664062 25.765625 -9.03125 25.109375 -7.5 C 24.453125 -5.976562 23.539062 -4.628906 22.375 -3.453125 C 21.21875 -2.285156 19.878906 -1.375 18.359375 -0.71875 C 16.835938 -0.0703125 15.203125 0.25 13.453125 0.25 Z M 13.03125 -1.015625 C 14.914062 -1.015625 16.582031 -1.472656 18.03125 -2.390625 C 19.476562 -3.304688 20.609375 -4.578125 21.421875 -6.203125 C 22.234375 -7.828125 22.640625 -9.691406 22.640625 -11.796875 C 22.640625 -13.535156 22.347656 -15.085938 21.765625 -16.453125 C 21.179688 -17.816406 20.40625 -18.960938 19.4375 -19.890625 C 18.476562 -20.828125 17.394531 -21.539062 16.1875 -22.03125 C 14.976562 -22.53125 13.753906 -22.78125 12.515625 -22.78125 C 11.472656 -22.78125 10.582031 -22.75 9.84375 -22.6875 C 9.113281 -22.632812 8.550781 -22.445312 8.15625 -22.125 C 7.769531 -21.8125 7.578125 -21.296875 7.578125 -20.578125 L 7.578125 -4.390625 C 7.578125 -3.421875 7.84375 -2.691406 8.375 -2.203125 C 8.90625 -1.722656 9.585938 -1.40625 10.421875 -1.25 C 11.265625 -1.09375 12.132812 -1.015625 13.03125 -1.015625 Z M 13.03125 -1.015625 "/></g></g></g><g fill="#b17d28" fill-opacity="1"><g transform="translate(390.198858, 202.793165)"><g><path d="M 23.109375 0.765625 C 22.429688 0.765625 21.789062 0.707031 21.1875 0.59375 C 20.582031 0.488281 20.023438 0.289062 19.515625 0 C 19.003906 -0.289062 18.535156 -0.691406 18.109375 -1.203125 C 17.523438 -1.921875 16.96875 -2.613281 16.4375 -3.28125 C 15.90625 -3.945312 15.34375 -4.710938 14.75 -5.578125 C 14.15625 -6.453125 13.4375 -7.566406 12.59375 -8.921875 C 12.226562 -9.523438 11.707031 -10 11.03125 -10.34375 C 10.5 -10.601562 9.972656 -10.785156 9.453125 -10.890625 C 8.929688 -11.003906 8.5 -11.078125 8.15625 -11.109375 C 7.96875 -11.128906 7.832031 -11.066406 7.75 -10.921875 C 7.664062 -10.773438 7.625 -10.59375 7.625 -10.375 L 7.625 -3.984375 C 7.625 -3.210938 7.800781 -2.539062 8.15625 -1.96875 C 8.519531 -1.40625 9.148438 -1.039062 10.046875 -0.875 C 10.460938 -0.800781 10.765625 -0.710938 10.953125 -0.609375 C 11.148438 -0.515625 11.25 -0.382812 11.25 -0.21875 C 11.25 -0.0703125 11.148438 0.03125 10.953125 0.09375 C 10.765625 0.15625 10.507812 0.1875 10.1875 0.1875 C 9.539062 0.1875 9.039062 0.160156 8.6875 0.109375 C 8.332031 0.0546875 8.015625 0.015625 7.734375 -0.015625 C 7.460938 -0.0546875 7.097656 -0.078125 6.640625 -0.078125 C 6.035156 -0.078125 5.492188 -0.0546875 5.015625 -0.015625 C 4.546875 0.015625 4.078125 0.0546875 3.609375 0.109375 C 3.140625 0.160156 2.578125 0.1875 1.921875 0.1875 C 1.609375 0.1875 1.351562 0.15625 1.15625 0.09375 C 0.96875 0.03125 0.875 -0.0703125 0.875 -0.21875 C 0.875 -0.507812 1.269531 -0.726562 2.0625 -0.875 C 2.988281 -1.039062 3.660156 -1.316406 4.078125 -1.703125 C 4.503906 -2.085938 4.71875 -2.726562 4.71875 -3.625 L 4.71875 -19.078125 C 4.71875 -20.003906 4.675781 -20.703125 4.59375 -21.171875 C 4.507812 -21.640625 4.316406 -21.96875 4.015625 -22.15625 C 3.710938 -22.351562 3.207031 -22.488281 2.5 -22.5625 C 2.09375 -22.613281 1.789062 -22.703125 1.59375 -22.828125 C 1.40625 -22.960938 1.3125 -23.117188 1.3125 -23.296875 C 1.3125 -23.441406 1.40625 -23.539062 1.59375 -23.59375 C 1.789062 -23.65625 2.046875 -23.6875 2.359375 -23.6875 C 3.015625 -23.6875 3.503906 -23.6875 3.828125 -23.6875 C 4.148438 -23.6875 4.457031 -23.679688 4.75 -23.671875 C 5.039062 -23.660156 5.425781 -23.65625 5.90625 -23.65625 C 6.375 -23.65625 6.785156 -23.671875 7.140625 -23.703125 C 7.503906 -23.742188 7.910156 -23.773438 8.359375 -23.796875 C 8.804688 -23.828125 9.382812 -23.84375 10.09375 -23.84375 C 12.75 -23.84375 14.769531 -23.34375 16.15625 -22.34375 C 17.550781 -21.351562 18.25 -19.867188 18.25 -17.890625 C 18.25 -16.796875 18.03125 -15.851562 17.59375 -15.0625 C 17.15625 -14.28125 16.609375 -13.625 15.953125 -13.09375 C 15.304688 -12.5625 14.644531 -12.128906 13.96875 -11.796875 C 13.875 -11.765625 13.832031 -11.707031 13.84375 -11.625 C 13.851562 -11.539062 13.894531 -11.4375 13.96875 -11.3125 C 14.71875 -10.175781 15.4375 -9.097656 16.125 -8.078125 C 16.8125 -7.066406 17.566406 -6.078125 18.390625 -5.109375 C 19.210938 -4.148438 20.191406 -3.148438 21.328125 -2.109375 C 21.960938 -1.546875 22.601562 -1.203125 23.25 -1.078125 C 23.90625 -0.960938 24.65625 -0.90625 25.5 -0.90625 C 25.863281 -0.90625 26.046875 -0.773438 26.046875 -0.515625 C 26.046875 -0.148438 25.863281 0.117188 25.5 0.296875 C 25.144531 0.484375 24.734375 0.609375 24.265625 0.671875 C 23.804688 0.734375 23.421875 0.765625 23.109375 0.765625 Z M 9.546875 -11.9375 C 10.648438 -11.9375 11.609375 -12.1875 12.421875 -12.6875 C 13.234375 -13.195312 13.863281 -13.863281 14.3125 -14.6875 C 14.757812 -15.507812 14.984375 -16.382812 14.984375 -17.3125 C 14.984375 -18.300781 14.851562 -19.207031 14.59375 -20.03125 C 14.34375 -20.851562 13.835938 -21.507812 13.078125 -22 C 12.316406 -22.5 11.175781 -22.75 9.65625 -22.75 C 8.875 -22.75 8.363281 -22.5 8.125 -22 C 7.882812 -21.507812 7.738281 -20.632812 7.6875 -19.375 C 7.664062 -18.769531 7.648438 -17.953125 7.640625 -16.921875 C 7.628906 -15.898438 7.625 -14.660156 7.625 -13.203125 C 7.625 -12.597656 7.789062 -12.234375 8.125 -12.109375 C 8.46875 -11.992188 8.941406 -11.9375 9.546875 -11.9375 Z M 9.546875 -11.9375 "/></g></g></g><g fill="#b17d28" fill-opacity="1"><g transform="translate(420.310818, 202.793165)"><g><path d="M 1.734375 0.1875 C 1.421875 0.1875 1.164062 0.15625 0.96875 0.09375 C 0.78125 0.03125 0.6875 -0.0703125 0.6875 -0.21875 C 0.6875 -0.507812 1.085938 -0.726562 1.890625 -0.875 C 2.804688 -1.039062 3.503906 -1.316406 3.984375 -1.703125 C 4.472656 -2.085938 4.71875 -2.707031 4.71875 -3.5625 L 4.71875 -19.953125 C 4.71875 -20.796875 4.539062 -21.398438 4.1875 -21.765625 C 3.84375 -22.128906 3.207031 -22.394531 2.28125 -22.5625 C 1.488281 -22.707031 1.09375 -22.953125 1.09375 -23.296875 C 1.09375 -23.441406 1.1875 -23.539062 1.375 -23.59375 C 1.570312 -23.65625 1.828125 -23.6875 2.140625 -23.6875 C 2.796875 -23.6875 3.332031 -23.675781 3.75 -23.65625 C 4.175781 -23.632812 4.582031 -23.613281 4.96875 -23.59375 C 5.351562 -23.582031 5.828125 -23.578125 6.390625 -23.578125 C 6.921875 -23.578125 7.351562 -23.582031 7.6875 -23.59375 C 8.03125 -23.613281 8.394531 -23.632812 8.78125 -23.65625 C 9.164062 -23.675781 9.6875 -23.6875 10.34375 -23.6875 C 10.65625 -23.6875 10.90625 -23.65625 11.09375 -23.59375 C 11.289062 -23.539062 11.390625 -23.441406 11.390625 -23.296875 C 11.390625 -23.117188 11.289062 -22.96875 11.09375 -22.84375 C 10.90625 -22.726562 10.601562 -22.632812 10.1875 -22.5625 C 9.300781 -22.394531 8.648438 -22.128906 8.234375 -21.765625 C 7.828125 -21.398438 7.625 -20.796875 7.625 -19.953125 L 7.625 -3.5625 C 7.625 -2.707031 7.875 -2.085938 8.375 -1.703125 C 8.882812 -1.316406 9.585938 -1.039062 10.484375 -0.875 C 10.898438 -0.800781 11.203125 -0.710938 11.390625 -0.609375 C 11.585938 -0.515625 11.6875 -0.382812 11.6875 -0.21875 C 11.6875 -0.0703125 11.585938 0.03125 11.390625 0.09375 C 11.203125 0.15625 10.945312 0.1875 10.625 0.1875 C 9.976562 0.1875 9.441406 0.164062 9.015625 0.125 C 8.585938 0.09375 8.179688 0.0625 7.796875 0.03125 C 7.410156 0.0078125 6.941406 0 6.390625 0 C 5.785156 0 5.257812 0.0078125 4.8125 0.03125 C 4.363281 0.0625 3.898438 0.09375 3.421875 0.125 C 2.953125 0.164062 2.390625 0.1875 1.734375 0.1875 Z M 1.734375 0.1875 "/></g></g></g><g fill="#b17d28" fill-opacity="1"><g transform="translate(436.891026, 202.793165)"><g><path d="M 14.21875 0.515625 C 12.550781 0.515625 10.960938 0.21875 9.453125 -0.375 C 7.941406 -0.96875 6.597656 -1.796875 5.421875 -2.859375 C 4.253906 -3.929688 3.328125 -5.1875 2.640625 -6.625 C 1.960938 -8.0625 1.625 -9.613281 1.625 -11.28125 C 1.625 -13.070312 1.972656 -14.738281 2.671875 -16.28125 C 3.378906 -17.832031 4.347656 -19.1875 5.578125 -20.34375 C 6.816406 -21.507812 8.238281 -22.414062 9.84375 -23.0625 C 11.457031 -23.71875 13.171875 -24.046875 14.984375 -24.046875 C 15.390625 -24.046875 15.945312 -24.003906 16.65625 -23.921875 C 17.375 -23.835938 18.113281 -23.734375 18.875 -23.609375 C 19.644531 -23.492188 20.335938 -23.367188 20.953125 -23.234375 C 21.566406 -23.097656 21.992188 -22.972656 22.234375 -22.859375 C 22.359375 -22.804688 22.4375 -22.75 22.46875 -22.6875 C 22.507812 -22.632812 22.539062 -22.546875 22.5625 -22.421875 C 22.664062 -21.722656 22.753906 -21.023438 22.828125 -20.328125 C 22.898438 -19.640625 22.9375 -19.054688 22.9375 -18.578125 C 22.9375 -18.410156 22.878906 -18.242188 22.765625 -18.078125 C 22.660156 -17.921875 22.535156 -17.84375 22.390625 -17.84375 C 22.140625 -17.84375 21.953125 -17.953125 21.828125 -18.171875 C 21.710938 -18.390625 21.617188 -18.609375 21.546875 -18.828125 C 21.398438 -19.210938 21.25 -19.546875 21.09375 -19.828125 C 20.9375 -20.109375 20.710938 -20.414062 20.421875 -20.75 C 20.273438 -20.945312 19.96875 -21.195312 19.5 -21.5 C 19.03125 -21.800781 18.394531 -22.070312 17.59375 -22.3125 C 16.800781 -22.550781 15.820312 -22.671875 14.65625 -22.671875 C 13.25 -22.671875 11.96875 -22.375 10.8125 -21.78125 C 9.65625 -21.1875 8.65625 -20.375 7.8125 -19.34375 C 6.976562 -18.320312 6.335938 -17.15625 5.890625 -15.84375 C 5.441406 -14.539062 5.21875 -13.175781 5.21875 -11.75 C 5.21875 -10.03125 5.484375 -8.492188 6.015625 -7.140625 C 6.554688 -5.785156 7.269531 -4.632812 8.15625 -3.6875 C 9.050781 -2.75 10.066406 -2.035156 11.203125 -1.546875 C 12.347656 -1.066406 13.523438 -0.828125 14.734375 -0.828125 C 16.128906 -0.828125 17.160156 -0.992188 17.828125 -1.328125 C 18.492188 -1.671875 18.9375 -1.953125 19.15625 -2.171875 C 19.425781 -2.441406 19.675781 -2.816406 19.90625 -3.296875 C 20.132812 -3.785156 20.25 -4.34375 20.25 -4.96875 C 20.25 -5.1875 20.253906 -5.414062 20.265625 -5.65625 C 20.273438 -5.894531 20.285156 -6.132812 20.296875 -6.375 C 20.304688 -6.625 20.3125 -6.859375 20.3125 -7.078125 C 20.3125 -7.335938 20.300781 -7.554688 20.28125 -7.734375 C 20.257812 -7.921875 20.210938 -8.0625 20.140625 -8.15625 C 19.941406 -8.425781 19.597656 -8.644531 19.109375 -8.8125 C 18.628906 -8.988281 18.144531 -9.109375 17.65625 -9.171875 C 17.175781 -9.242188 16.816406 -9.28125 16.578125 -9.28125 C 16.484375 -9.28125 16.335938 -9.34375 16.140625 -9.46875 C 15.953125 -9.59375 15.859375 -9.738281 15.859375 -9.90625 C 15.859375 -10.09375 15.953125 -10.238281 16.140625 -10.34375 C 16.335938 -10.457031 16.484375 -10.515625 16.578125 -10.515625 C 17.179688 -10.515625 17.703125 -10.503906 18.140625 -10.484375 C 18.578125 -10.460938 19.023438 -10.4375 19.484375 -10.40625 C 19.941406 -10.382812 20.5 -10.375 21.15625 -10.375 C 21.78125 -10.375 22.3125 -10.394531 22.75 -10.4375 C 23.1875 -10.488281 23.726562 -10.515625 24.375 -10.515625 C 24.476562 -10.515625 24.628906 -10.476562 24.828125 -10.40625 C 25.035156 -10.332031 25.140625 -10.175781 25.140625 -9.9375 C 25.140625 -9.769531 25.035156 -9.625 24.828125 -9.5 C 24.628906 -9.382812 24.476562 -9.3125 24.375 -9.28125 C 23.84375 -9.144531 23.472656 -8.9375 23.265625 -8.65625 C 23.066406 -8.375 22.929688 -7.992188 22.859375 -7.515625 C 22.785156 -6.984375 22.734375 -6.507812 22.703125 -6.09375 C 22.679688 -5.6875 22.671875 -5.253906 22.671875 -4.796875 L 22.671875 -3.8125 C 22.671875 -3.6875 22.695312 -3.585938 22.75 -3.515625 C 22.800781 -3.441406 22.847656 -3.347656 22.890625 -3.234375 C 22.960938 -3.109375 23.054688 -2.992188 23.171875 -2.890625 C 23.296875 -2.796875 23.359375 -2.703125 23.359375 -2.609375 C 23.359375 -2.515625 23.335938 -2.390625 23.296875 -2.234375 C 23.265625 -2.078125 23.117188 -1.972656 22.859375 -1.921875 C 22.691406 -1.898438 22.359375 -1.757812 21.859375 -1.5 C 21.359375 -1.25 20.734375 -0.96875 19.984375 -0.65625 C 19.234375 -0.34375 18.375 -0.0703125 17.40625 0.15625 C 16.445312 0.394531 15.382812 0.515625 14.21875 0.515625 Z M 14.21875 0.515625 "/></g></g></g><g fill="#b17d28" fill-opacity="1"><g transform="translate(467.583431, 202.793165)"><g><path d="M 13.671875 0.515625 C 12.078125 0.515625 10.554688 0.226562 9.109375 -0.34375 C 7.660156 -0.914062 6.378906 -1.726562 5.265625 -2.78125 C 4.148438 -3.832031 3.265625 -5.085938 2.609375 -6.546875 C 1.953125 -8.015625 1.625 -9.640625 1.625 -11.421875 C 1.625 -13.066406 1.890625 -14.644531 2.421875 -16.15625 C 2.960938 -17.675781 3.75 -19.023438 4.78125 -20.203125 C 5.820312 -21.390625 7.117188 -22.332031 8.671875 -23.03125 C 10.222656 -23.738281 12 -24.09375 14 -24.09375 C 15.601562 -24.09375 17.128906 -23.804688 18.578125 -23.234375 C 20.023438 -22.671875 21.304688 -21.863281 22.421875 -20.8125 C 23.535156 -19.757812 24.414062 -18.5 25.0625 -17.03125 C 25.71875 -15.570312 26.046875 -13.945312 26.046875 -12.15625 C 26.046875 -10.53125 25.78125 -8.957031 25.25 -7.4375 C 24.71875 -5.914062 23.929688 -4.5625 22.890625 -3.375 C 21.847656 -2.1875 20.550781 -1.238281 19 -0.53125 C 17.457031 0.164062 15.679688 0.515625 13.671875 0.515625 Z M 14.21875 -0.9375 C 16.082031 -0.9375 17.628906 -1.328125 18.859375 -2.109375 C 20.097656 -2.898438 21.023438 -4.003906 21.640625 -5.421875 C 22.253906 -6.835938 22.5625 -8.488281 22.5625 -10.375 C 22.5625 -12.039062 22.367188 -13.613281 21.984375 -15.09375 C 21.597656 -16.570312 21.023438 -17.875 20.265625 -19 C 19.503906 -20.125 18.550781 -21 17.40625 -21.625 C 16.269531 -22.25 14.941406 -22.5625 13.421875 -22.5625 C 11.609375 -22.5625 10.082031 -22.175781 8.84375 -21.40625 C 7.613281 -20.632812 6.679688 -19.550781 6.046875 -18.15625 C 5.421875 -16.769531 5.109375 -15.132812 5.109375 -13.25 C 5.109375 -11.550781 5.296875 -9.960938 5.671875 -8.484375 C 6.046875 -7.015625 6.613281 -5.707031 7.375 -4.5625 C 8.144531 -3.425781 9.097656 -2.535156 10.234375 -1.890625 C 11.367188 -1.253906 12.695312 -0.9375 14.21875 -0.9375 Z M 14.21875 -0.9375 "/></g></g></g></svg>